<svg width="300" height="301" viewBox="0 0 300 301" fill="none" xmlns="http://www.w3.org/2000/svg">
<path d="M173.264 199.91C173.272 199.881 173.274 199.851 173.27 199.822C173.267 199.792 173.257 199.764 173.242 199.738C173.228 199.713 173.208 199.69 173.185 199.672C173.162 199.654 173.135 199.64 173.106 199.632C173.078 199.624 173.048 199.622 173.018 199.626C172.989 199.629 172.961 199.639 172.935 199.653C172.909 199.668 172.886 199.688 172.868 199.711C172.85 199.734 172.837 199.761 172.829 199.79C172.017 203.064 172.274 206.512 173.564 209.63C173.654 209.825 173.954 209.63 173.909 209.48C172.9 206.393 172.679 203.104 173.264 199.91ZM183.359 199.46C183.554 199.64 183.899 199.46 183.749 199.16C182.949 198.136 181.865 197.369 180.633 196.956C179.401 196.543 178.075 196.5 176.819 196.835C176.639 196.835 176.744 197.21 176.924 197.18C178.099 197.049 179.288 197.187 180.403 197.581C181.517 197.976 182.528 198.618 183.359 199.46Z" fill="black"/>
<path d="M157.073 149.995L155.053 138.379L162.339 137.425L170.413 136.267L176.423 134.89L181.806 133.356L186.532 131.197L188.363 130.471L185.61 122.454L184.457 119.987L180.907 113.188L177.127 107.356L172.425 101.893L167.192 97.6746L162.536 95.1391L158.225 93.5615L150.377 91.7924L145.297 90.9402H142.703L142.238 92.4394L140.704 95.1448L138.929 96.7473L136.207 98.0914L133.605 98.953L131.261 99.0564L129.159 98.4878L127.573 97.2643L127.074 95.2654L127.384 93.9041L127.573 93.1114L123.662 93.973L117.7 96.6611L113.667 98.9014L112.374 100.001L125.945 99.3858L128.57 99.2782L128.285 99.995L125.76 109.591L121.719 126.763L120.204 136.864L119.699 142.419L122.729 144.944L133.335 146.965L149.497 148.48L157.073 149.995Z" fill="#4CAF50"/>
<path d="M114.155 169.242L103.06 168.875L102.021 151.759L113.391 152.37L114.155 164.963V166.858V169.242Z" fill="black" fill-opacity="0.18"/>
<path d="M168.182 178.783L162.626 183.833L137.374 176.763L124.748 170.197L121.717 159.086L121.212 153.025V152.015H122.222L124.242 153.025L130.808 157.066L145.96 166.157C147.475 167.167 149.495 168.307 152.02 169.187C155.287 170.325 158.927 171.427 161.111 171.712C166.768 173.328 172.222 171.376 174.242 170.197C175.216 170.359 175.771 169.792 176.768 169.187C176.786 169.176 176.804 169.165 176.823 169.154L179.293 167.672C179.921 167.08 180.448 166.62 180.808 166.157V170.955V173.354L181.313 175.753H177.778L172.222 176.763L168.182 178.783Z" fill="#4CAF50"/>
<path d="M175.901 195.215C175.249 194.585 174.403 194.194 173.501 194.105C173.7 190.982 174.336 187.902 175.391 184.955C175.511 184.715 175.076 184.52 174.956 184.76C173.664 187.684 173.005 190.848 173.021 194.045C173.021 194.045 170.726 194.21 170.021 195.065C169.737 195.45 169.599 195.923 169.631 196.4C167.57 195.369 165.269 194.913 162.971 195.08C162.907 195.08 162.846 195.105 162.801 195.15C162.756 195.195 162.731 195.256 162.731 195.32C162.731 195.384 162.756 195.445 162.801 195.49C162.846 195.535 162.907 195.56 162.971 195.56C165.281 195.604 167.564 196.072 169.706 196.94C169.87 197.581 170.214 198.162 170.696 198.615C171.179 199.067 171.781 199.373 172.431 199.496C173.081 199.619 173.753 199.554 174.368 199.308C174.982 199.063 175.514 198.647 175.901 198.11C175.901 198.11 177.011 196.34 175.901 195.215ZM170.471 195.5C170.786 194.765 171.851 194.585 172.646 194.57C173.59 194.531 174.522 194.799 175.301 195.335C175.646 195.605 176.066 195.965 175.991 196.4C175.196 200.885 169.091 198.83 170.471 195.5ZM40.5108 199.28C40.1907 201.518 40.5459 203.8 41.5308 205.835C41.6508 206.015 41.9658 205.835 41.8908 205.685C41.0736 203.65 40.7696 201.445 41.0058 199.265C41.1408 199.265 44.5908 199.025 44.5758 195.83C46.2885 195.363 48.0872 195.307 49.8258 195.665C49.8745 195.676 49.9255 195.668 49.9683 195.642C50.0111 195.616 50.0424 195.575 50.0559 195.527C50.0693 195.479 50.0639 195.428 50.0406 195.384C50.0173 195.34 49.978 195.306 49.9308 195.29C48.1617 194.727 46.2546 194.774 44.5158 195.425C44.3808 195.065 43.2858 193.55 40.3008 193.925C39.68 192.713 39.5202 191.316 39.8513 189.994C40.1823 188.673 40.9816 187.517 42.1008 186.74C42.3258 186.56 42.1008 186.215 41.8908 186.365C40.6384 187.138 39.7245 188.356 39.3323 189.775C38.9401 191.194 39.0985 192.708 39.7758 194.015C37.4058 194.585 37.1958 195.755 37.0758 196.16C35.0577 196.038 33.038 196.372 31.1658 197.135C31.1201 197.163 31.0873 197.208 31.0746 197.26C31.0619 197.312 31.0705 197.367 31.0983 197.413C31.1262 197.458 31.171 197.491 31.2231 197.504C31.2751 197.516 31.3301 197.508 31.3758 197.48C33.207 196.986 35.0899 196.709 36.9858 196.655C37.0306 197.065 37.1594 197.461 37.3642 197.819C37.5691 198.177 37.8455 198.489 38.1763 198.736C38.5071 198.982 38.8852 199.158 39.2868 199.251C39.6885 199.345 40.1052 199.355 40.5108 199.28ZM37.9308 195.665C39.4308 193.775 44.1708 193.91 44.1708 196.01C44.0208 198.665 40.2708 199.325 38.3808 198.155C37.9962 197.882 37.7285 197.474 37.6312 197.013C37.5339 196.551 37.6141 196.07 37.8558 195.665H37.9308ZM125.036 67.0251C125.032 66.9858 125.019 66.948 124.998 66.9143C124.978 66.8806 124.95 66.8518 124.917 66.8299C124.884 66.808 124.847 66.7936 124.808 66.7876C124.769 66.7817 124.729 66.7844 124.691 66.7955C124.653 66.8067 124.618 66.826 124.589 66.8521C124.559 66.8782 124.536 66.9105 124.52 66.9467C124.504 66.9829 124.497 67.0221 124.498 67.0615C124.499 67.101 124.508 67.1398 124.526 67.1751C124.616 67.4451 125.096 68.7801 125.141 68.8701C125.176 68.913 125.224 68.9432 125.278 68.9562C125.332 68.9693 125.389 68.9644 125.439 68.9424C125.49 68.9203 125.533 68.8823 125.56 68.8341C125.587 68.7859 125.598 68.73 125.591 68.6751C125.576 68.5851 125.141 67.2951 125.036 67.0251ZM117.836 69.5001C117.822 69.4448 117.79 69.3957 117.745 69.3606C117.701 69.3255 117.645 69.3065 117.588 69.3065C117.531 69.3065 117.476 69.3255 117.431 69.3606C117.386 69.3957 117.355 69.4448 117.341 69.5001C117.273 69.8495 117.277 70.209 117.351 70.557C117.426 70.905 117.571 71.2343 117.776 71.5251C117.807 71.5455 117.843 71.5579 117.88 71.5611C117.917 71.5642 117.955 71.5581 117.989 71.5432C118.023 71.5283 118.053 71.5052 118.076 71.4758C118.099 71.4465 118.114 71.4119 118.121 71.3751C117.927 70.7691 117.831 70.1362 117.836 69.5001ZM73.9308 126.5C77.9058 126.89 81.8808 127.325 85.8558 127.715C86.0508 127.715 86.1558 127.52 86.1258 127.37C82.7958 111.665 83.5458 109.37 82.8408 109.37C78.5467 109.762 74.2181 109.504 70.0008 108.605C69.9591 108.592 69.9147 108.591 69.8724 108.602C69.83 108.612 69.7913 108.634 69.7605 108.665C69.7296 108.696 69.7078 108.734 69.6973 108.777C69.6867 108.819 69.688 108.863 69.7008 108.905C71.3958 114.5 73.6308 126.41 73.9308 126.5ZM70.3008 109.145C74.3483 109.986 78.4961 110.239 82.6158 109.895C83.3508 115.655 84.3408 121.37 85.5108 127.07L74.0058 125.855C73.1471 120.208 71.9093 114.626 70.3008 109.145ZM97.8858 120.5C98.1408 120.5 98.0658 120.095 97.8858 120.08C96.5358 120.08 91.0608 119.945 89.6808 119.75C89.4258 119.75 89.3058 120.11 89.5758 120.155C92.3309 120.507 95.111 120.622 97.8858 120.5ZM88.6458 115.325C88.3758 115.325 88.3908 115.715 88.6458 115.745C91.8801 115.982 95.1246 116.047 98.3658 115.94C98.6208 115.94 98.5308 115.535 98.3658 115.52C97.5108 115.445 90.2508 115.445 88.6458 115.325ZM88.3008 111.62C91.3648 112.009 94.4526 112.18 97.5408 112.13C97.5924 112.117 97.6382 112.087 97.6709 112.045C97.7036 112.003 97.7213 111.951 97.7213 111.898C97.7213 111.844 97.7036 111.793 97.6709 111.75C97.6382 111.708 97.5924 111.678 97.5408 111.665C96.0408 111.665 89.1108 111.245 88.3608 111.23C88.3352 111.226 88.3091 111.227 88.2839 111.233C88.2587 111.24 88.235 111.251 88.2141 111.266C88.1933 111.281 88.1756 111.301 88.1621 111.323C88.1487 111.345 88.1398 111.369 88.1358 111.395C88.1319 111.421 88.133 111.447 88.1392 111.472C88.1453 111.497 88.1564 111.521 88.1717 111.542C88.187 111.563 88.2063 111.58 88.2285 111.594C88.2506 111.607 88.2752 111.616 88.3008 111.62ZM102.371 121.895C106.45 122.08 110.537 121.89 114.581 121.325C114.658 121.318 114.731 121.285 114.785 121.23C114.84 121.175 114.874 121.102 114.881 121.025C114.506 111.38 115.616 110.09 114.686 110.225C110.606 110.825 106.463 110.87 102.371 110.36C102.266 110.36 101.951 110.51 101.951 110.615C101.846 114.275 101.951 117.92 102.056 121.58C102.056 121.664 102.089 121.744 102.148 121.803C102.207 121.862 102.287 121.895 102.371 121.895ZM114.446 110.87C114.206 114.159 114.146 117.459 114.266 120.755C110.422 121.252 106.544 121.428 102.671 121.28C102.566 117.845 102.386 114.41 102.326 110.975C106.363 111.225 110.413 111.19 114.446 110.87ZM91.0008 128.285C94.3758 128.495 109.496 128.39 111.131 128.165C111.341 128.165 111.281 127.805 111.131 127.805C109.466 127.73 94.4058 127.985 91.0458 127.955C90.7908 128 90.7908 128.27 91.0008 128.285ZM109.766 133.61C109.818 133.61 109.867 133.59 109.904 133.553C109.94 133.516 109.961 133.467 109.961 133.415C109.961 133.363 109.94 133.314 109.904 133.277C109.867 133.241 109.818 133.22 109.766 133.22C100.421 133.22 76.4958 132.08 73.8858 131.855C73.6758 131.855 73.6758 132.155 73.8858 132.185C83.1858 133.13 107.141 133.7 109.766 133.61ZM105.581 140.975C105.851 140.975 105.926 140.54 105.656 140.495C95.7404 139.265 85.766 138.569 75.7758 138.41C75.7241 138.41 75.6745 138.431 75.6379 138.467C75.6014 138.504 75.5808 138.553 75.5808 138.605C75.5808 138.657 75.6014 138.706 75.6379 138.743C75.6745 138.78 75.7241 138.8 75.7758 138.8C83.5308 139.1 87.6408 139.28 105.581 140.975ZM102.386 147.32C102.434 147.32 102.479 147.301 102.513 147.267C102.547 147.234 102.566 147.188 102.566 147.14C102.566 147.092 102.547 147.047 102.513 147.013C102.479 146.979 102.434 146.96 102.386 146.96C100.706 146.78 78.2508 146.285 76.3308 146.27C76.1208 146.27 76.1208 146.6 76.3308 146.6C83.0958 146.885 100.511 147.5 102.386 147.32ZM97.7508 155.09C98.0658 155.09 98.0508 154.64 97.7508 154.595C94.3908 154.16 80.8458 153.095 77.4708 153.005C77.2908 153.005 77.2458 153.305 77.4708 153.32C80.7558 153.785 94.3308 155 97.7508 155.09ZM96.7008 161.69C96.7452 161.678 96.7843 161.651 96.8122 161.615C96.8401 161.578 96.8552 161.534 96.8552 161.488C96.8552 161.442 96.8401 161.397 96.8122 161.36C96.7843 161.324 96.7452 161.297 96.7008 161.285C95.4108 160.91 80.8758 159.605 80.2008 159.68C80.169 159.68 80.1385 159.693 80.116 159.715C80.0935 159.738 80.0808 159.768 80.0808 159.8C80.0808 159.832 80.0935 159.862 80.116 159.885C80.1385 159.907 80.169 159.92 80.2008 159.92C80.8158 160.13 95.3208 161.795 96.7008 161.69ZM99.2208 168.02C98.5158 167.81 83.9658 166.52 80.8758 166.325C80.6808 166.325 80.6958 166.61 80.8758 166.625C83.8758 167 98.3658 168.53 99.1608 168.47C99.2205 168.478 99.2809 168.462 99.3287 168.425C99.3765 168.389 99.4079 168.335 99.4158 168.275C99.4238 168.215 99.4077 168.155 99.3711 168.107C99.3346 168.059 99.2805 168.028 99.2208 168.02ZM101.831 151.79C102.161 157.4 102.416 163.04 102.866 168.65C102.836 168.689 102.817 168.735 102.811 168.784C102.805 168.832 102.813 168.881 102.833 168.926C102.853 168.971 102.885 169.009 102.925 169.037C102.965 169.065 103.012 169.082 103.061 169.085C106.781 169.42 110.517 169.545 114.251 169.46C114.288 169.462 114.324 169.457 114.359 169.444C114.393 169.431 114.425 169.412 114.452 169.387C114.478 169.361 114.499 169.331 114.514 169.297C114.528 169.263 114.536 169.227 114.536 169.19L113.681 152.27C113.677 152.193 113.644 152.121 113.588 152.068C113.532 152.015 113.458 151.985 113.381 151.985L102.116 151.505C102.078 151.503 102.04 151.509 102.004 151.522C101.969 151.536 101.936 151.557 101.909 151.584C101.883 151.611 101.862 151.643 101.848 151.678C101.835 151.714 101.829 151.752 101.831 151.79ZM113.111 152.54C113.396 158 113.666 163.46 113.951 168.92C110.372 168.995 106.792 168.875 103.226 168.56C103.046 163.07 102.671 157.58 102.416 152.06L113.111 152.54ZM42.0858 133.19C38.9362 133.337 35.8196 133.897 32.8158 134.855C32.1108 135.08 29.6808 135.53 29.5008 136.475C29.3208 137.42 30.5058 137.39 31.1358 137.345C34.8834 137.085 38.5777 136.313 42.1158 135.05C42.4606 134.953 42.7786 134.779 43.0458 134.54C43.1787 134.417 43.268 134.253 43.3005 134.075C43.3329 133.897 43.3067 133.712 43.2258 133.55C43.0008 133.205 42.5058 133.175 42.0858 133.19Z" fill="black"/>
<path d="M277.183 87.2152C273.388 77.3152 250.273 14.2402 248.083 8.37515C247.943 8.18656 247.741 8.05366 247.513 8.00015C243.208 8.00015 216.823 8.61515 214.408 8.79515C214.108 8.79515 191.443 82.4602 190.123 87.2302C190.123 87.3802 190.363 91.0552 190.468 91.3702C190.573 91.6852 190.903 91.6252 190.948 91.3702C190.993 91.1152 190.753 88.0102 190.738 87.8602C191.743 87.9652 192.763 88.0552 193.738 88.1302C193.458 89.6824 193.566 91.2799 194.053 92.7802C194.079 92.827 194.12 92.8639 194.169 92.8848C194.218 92.9058 194.273 92.9097 194.325 92.8959C194.377 92.8821 194.422 92.8514 194.455 92.8087C194.487 92.766 194.504 92.7137 194.503 92.6602C194.135 91.1904 194.023 89.668 194.173 88.1602C195.778 88.3102 197.398 88.4302 199.018 88.5502C198.817 90.3315 199.038 92.1352 199.663 93.8152C199.688 93.8587 199.727 93.8927 199.774 93.9116C199.82 93.9305 199.872 93.9333 199.92 93.9195C199.968 93.9057 200.011 93.8761 200.04 93.8354C200.07 93.7948 200.085 93.7454 200.083 93.6952C199.641 92.0275 199.444 90.3045 199.498 88.5802C201.178 88.7002 202.873 88.8052 204.568 88.8952V93.6202C204.586 93.6731 204.621 93.719 204.667 93.7515C204.712 93.784 204.767 93.8014 204.823 93.8014C204.879 93.8014 204.934 93.784 204.979 93.7515C205.025 93.719 205.06 93.6731 205.078 93.6202V88.9252L209.833 89.1652C209.833 89.9002 209.833 93.4252 209.938 93.6652C209.955 93.7111 209.986 93.7507 210.026 93.7787C210.066 93.8066 210.114 93.8216 210.163 93.8216C210.212 93.8216 210.26 93.8066 210.3 93.7787C210.34 93.7507 210.371 93.7111 210.388 93.6652C210.427 92.1641 210.387 90.662 210.268 89.1652C212.143 89.2402 214.003 89.3152 215.878 89.3602C215.91 90.8659 216.03 92.3685 216.238 93.8602C216.238 94.1152 216.673 94.0402 216.688 93.8602C216.672 92.3557 216.572 90.8534 216.388 89.3602C218.383 89.3602 220.378 89.4502 222.388 89.4652C222.388 89.4652 222.208 93.0202 222.253 93.6952C222.253 93.9352 222.658 94.0252 222.688 93.6952C222.793 93.0202 222.913 89.4502 222.883 89.4052H227.803V93.2152C227.82 93.2611 227.851 93.3007 227.891 93.3287C227.931 93.3567 227.979 93.3716 228.028 93.3716C228.077 93.3716 228.125 93.3567 228.165 93.3287C228.205 93.3007 228.236 93.2611 228.253 93.2152C228.32 91.9461 228.32 90.6743 228.253 89.4052H228.838C228.628 100.055 228.148 119.675 228.148 121.52C227.473 121.52 188.443 121.415 185.458 121.52C181.753 112.4 175.603 102.755 167.458 97.5202C159.937 92.8836 151.258 90.4705 142.423 90.5602C142.423 90.5602 139.948 83.4802 139.693 82.5202C140.383 80.0369 140.811 77.4878 140.968 74.9152C141.441 70.0451 141.646 65.1527 141.583 60.2602C141.583 55.7602 141.688 51.9952 137.083 49.9702C136.924 49.6887 136.84 49.3709 136.84 49.0477C136.84 48.7244 136.924 48.4066 137.083 48.1252C135.935 48.1762 134.819 48.5224 133.843 49.1302C133.615 48.0495 133.062 47.0647 132.257 46.3083C131.453 45.552 130.436 45.0605 129.343 44.9002C129.746 45.1433 130.069 45.498 130.274 45.9214C130.479 46.3447 130.557 46.8185 130.498 47.2852C122.113 42.1852 119.998 52.3252 115.873 51.7852C114.88 51.5227 114.029 50.882 113.503 50.0002C113.115 50.6436 112.922 51.3863 112.949 52.1375C112.975 52.8887 113.22 53.6158 113.653 54.2302C113.219 54.1116 112.813 53.9067 112.46 53.6278C112.107 53.3488 111.814 53.0014 111.598 52.6065C111.383 52.2116 111.249 51.7772 111.205 51.3293C111.161 50.8815 111.208 50.4294 111.343 50.0002C110.231 50.5275 109.312 51.3897 108.715 52.4657C108.118 53.5417 107.872 54.7776 108.013 56.0002C108.175 56.9594 108.561 57.8669 109.139 58.6488C109.718 59.4308 110.473 60.0651 111.343 60.5002C110.279 60.7252 109.17 60.5879 108.193 60.1102C109.193 61.7669 110.712 63.0479 112.513 63.7552C112.688 67.7696 113.487 71.7322 114.883 75.5002C114.154 77.8094 114.02 80.2653 114.493 82.6402C115.513 90.6352 123.013 93.7252 130.513 91.1452C129.958 92.4202 128.488 92.5102 127.213 92.7952C125.405 93.1902 123.622 93.6911 121.873 94.2952C118.404 95.6924 115.127 97.5273 112.123 99.7552C83.113 100.52 68.488 99.6202 64.318 99.3052C67.423 97.1602 70.813 93.5752 69.673 89.9602C69.0772 88.2085 68.1561 86.5851 66.958 85.1752C61.813 78.8902 53.323 78.0502 46.393 75.2302C45.643 74.9152 38.353 71.3002 37.543 68.1952C37.405 67.7546 37.4058 67.2823 37.5453 66.8422C37.6848 66.4021 37.9564 66.0156 38.323 65.7352C38.548 65.6002 38.488 65.1652 38.188 65.1952C36.6035 65.3455 35.0971 65.9544 33.853 66.9472C32.609 67.9401 31.6812 69.2739 31.1831 70.7857C30.685 72.2974 30.6383 73.9215 31.0485 75.4594C31.4587 76.9973 32.3082 78.3823 33.493 79.4452C35.833 81.6952 38.938 82.8052 41.668 84.4552C44.398 86.1052 47.128 88.5352 46.993 91.9552C46.858 95.3752 43.888 98.2252 40.873 99.6502C37.573 101.15 33.913 101.735 30.538 103.1C24.298 105.635 22.573 110.6 23.503 113.81C23.9979 115.251 25.0075 116.458 26.338 117.2C29.338 119.015 33.688 118.7 35.968 121.7C36.5412 122.366 36.8601 123.213 36.8683 124.092C36.8766 124.97 36.5736 125.824 36.013 126.5C34.933 127.85 30.508 130.535 30.013 131C29.848 131.195 30.118 131.48 30.298 131.285C32.3897 130.287 34.6473 129.681 36.958 129.5C40.618 128.885 50.758 125.195 52.498 122.09C52.8391 121.562 52.958 120.921 52.8288 120.306C52.6996 119.691 52.3327 119.151 51.808 118.805C51.118 118.31 48.463 118.58 47.188 116.675C44.698 112.985 47.938 108.815 50.923 106.595C53.501 104.862 56.2505 103.4 59.128 102.23C62.368 111.23 68.698 133.145 69.148 134.87C68.038 135.02 59.503 136.25 58.303 136.37C57.103 136.49 52.423 135.29 51.628 135.83C49.8736 134.988 47.8851 134.766 45.988 135.2C45.6112 133.837 45.1091 132.511 44.488 131.24C34.858 131.24 29.053 134.36 26.608 136.25C26.518 136.25 26.608 136.58 26.608 136.625C27.463 139.91 31.588 154.625 32.173 156.26C32.173 156.35 42.328 159.71 50.173 152.465C50.173 152.465 49.813 150.2 49.753 149.15C51.0741 149.025 52.3107 148.445 53.2518 147.509C54.1929 146.574 54.78 145.34 54.913 144.02C60.7517 144.609 66.5283 145.704 72.178 147.29C73.003 150.905 75.943 166.4 76.678 170.495C75.2047 170.498 73.7593 170.897 72.493 171.65C72.328 171.755 35.368 173.495 31.993 175.22C29.0643 176.507 26.6584 178.749 25.168 181.58C23.8852 184.517 23.4188 187.745 23.818 190.925C24.628 198.425 29.053 204.875 32.623 211.34C35.458 216.5 34.858 225.935 35.008 228.065C31.648 226.28 23.278 227.3 23.233 227.33C23.0157 227.528 22.8834 227.803 22.8639 228.097C22.8443 228.39 22.9389 228.68 23.128 228.905C26.7263 233.515 30.9465 237.604 35.668 241.055C35.893 247.43 35.803 264.425 35.668 266.555C35.668 267.545 35.203 271.325 35.293 272.225C35.3428 272.941 35.5723 273.632 35.9604 274.235C36.3485 274.838 36.8825 275.333 37.513 275.675C39.628 276.725 39.598 276.365 82.873 275.48C82.873 276.215 82.963 276.98 82.993 277.655H86.548V283.4C86.443 283.31 85.528 282.875 85.183 283.01C83.3451 283.737 81.5777 284.631 79.903 285.68C74.968 288.68 74.323 291.2 74.323 291.245C74.2873 291.528 74.3604 291.814 74.5275 292.045C74.6945 292.276 74.9432 292.435 75.223 292.49C79.723 293.36 94.918 292.76 96.418 292.49C97.288 292.31 97.378 291.5 97.333 290.63C97.3193 290.381 97.2212 290.145 97.0548 289.959C96.8885 289.774 96.6638 289.651 96.418 289.61C97.288 287.765 96.073 285.515 94.918 283.865C93.763 282.215 94.243 278.39 94.258 278.06C95.668 278.165 97.078 278.27 98.5031 278.405C98.5786 277.288 98.7492 276.179 99.013 275.09C108.051 274.934 117.07 274.197 126.013 272.885C126.013 272.885 127.123 266.885 127.513 263.885C129.823 263.885 148.063 263.885 154.873 263.765C155.068 265.505 156.283 275.765 156.373 275.765C162.928 278.54 171.373 279.185 178.438 278.975C178.723 278.975 193.213 278.09 201.988 276.605C206.144 275.98 210.341 275.669 214.543 275.675C212.323 277.085 204.043 281.915 202.273 283.1C202.214 283.189 202.182 283.293 202.182 283.4C202.182 283.507 202.214 283.611 202.273 283.7C210.403 288.29 223.753 287.855 234.013 287.855C238.288 287.855 244.138 288.14 251.008 285.14C252.508 284.495 255.793 282.89 255.133 281.375C255.028 281.195 240.028 273.02 237.223 271.325C235.843 260.285 234.883 249.485 237.118 236.39C237.763 232.61 240.748 220.835 248.518 204.89C252.763 196.235 251.773 186.35 247.453 180.05C246.71 178.906 245.782 177.892 244.708 177.05C243.139 176.273 241.45 175.766 239.713 175.55C242.518 163.55 244.738 150.335 244.528 138.05C244.687 134.338 243.881 130.648 242.188 127.34C240.448 124.34 237.193 121.835 233.593 122.12C233.683 113.015 233.803 91.8502 233.803 89.3902H234.583V93.5452C234.601 93.5946 234.633 93.6373 234.676 93.6676C234.719 93.6978 234.771 93.714 234.823 93.714C234.876 93.714 234.927 93.6978 234.97 93.6676C235.013 93.6373 235.045 93.5946 235.063 93.5452C235.138 93.1852 235.153 90.0202 235.063 89.3752H239.293C239.307 90.6439 239.393 91.9109 239.548 93.1702C239.56 93.2145 239.587 93.2537 239.623 93.2815C239.66 93.3094 239.705 93.3245 239.751 93.3245C239.797 93.3245 239.841 93.3094 239.878 93.2815C239.914 93.2537 239.941 93.2145 239.953 93.1702C239.932 91.9189 239.822 90.6707 239.623 89.4352L244.123 89.3002C243.956 90.661 244.201 92.0406 244.828 93.2602C244.933 93.3952 245.203 93.3802 245.188 93.1702C244.792 91.9199 244.614 90.6107 244.663 89.3002L250.513 89.0002C250.513 89.0002 250.408 92.2402 250.513 92.5552C250.531 92.6081 250.566 92.654 250.612 92.6865C250.657 92.719 250.712 92.7364 250.768 92.7364C250.824 92.7364 250.879 92.719 250.924 92.6865C250.97 92.654 251.005 92.6081 251.023 92.5552V88.9852L255.388 88.8052C254.997 90.2665 255.119 91.8177 255.733 93.2002C255.853 93.4552 256.243 93.2002 256.168 93.0202C255.725 91.6504 255.622 90.1936 255.868 88.7752L261.253 88.5052C261.177 89.8441 261.177 91.1862 261.253 92.5252C261.265 92.5695 261.292 92.6087 261.328 92.6365C261.365 92.6644 261.41 92.6795 261.456 92.6795C261.502 92.6795 261.546 92.6644 261.583 92.6365C261.619 92.6087 261.646 92.5695 261.658 92.5252C261.734 91.1762 261.734 89.8241 261.658 88.4752L266.263 88.2352C266.263 88.8202 266.263 91.6252 266.413 91.9252C266.425 91.9695 266.452 92.0087 266.488 92.0365C266.525 92.0644 266.57 92.0795 266.616 92.0795C266.662 92.0795 266.706 92.0644 266.743 92.0365C266.779 92.0087 266.806 91.9695 266.818 91.9252C266.835 90.6837 266.79 89.4421 266.683 88.2052L271.438 87.9202C271.438 88.4902 271.693 90.9202 271.828 91.4752C271.841 91.5268 271.871 91.5725 271.913 91.6052C271.955 91.6379 272.007 91.6556 272.061 91.6556C272.114 91.6556 272.166 91.6379 272.208 91.6052C272.25 91.5725 272.28 91.5268 272.293 91.4752C272.293 90.8602 271.963 88.4752 271.873 87.9652L276.628 87.6652C276.11 88.6907 275.992 89.8726 276.298 90.9802C276.298 91.1302 276.718 91.1002 276.673 90.9802C276.488 89.7022 276.665 88.3979 277.183 87.2152ZM205.078 88.4602C200.278 88.2052 195.493 87.8602 190.708 87.4552C190.888 87.1552 214.708 8.96015 214.708 9.11015H220.993C219.133 19.4302 206.398 82.7002 205.078 88.4602ZM205.858 88.4602C208.063 78.2002 221.473 8.96015 221.458 8.96015H228.598C228.163 14.2402 225.268 83.1502 225.013 89.0002C219.868 89.0002 207.148 88.5652 205.858 88.5052V88.4602ZM228.358 122.21V125.87C226.841 128.641 225.494 131.501 224.323 134.435C220.063 144.68 217.888 160.655 220.348 175.505C177.958 175.64 181.243 175.61 181.258 175.505C181.378 174.005 181.033 166.145 181.018 166.115C183.063 164.148 184.686 161.785 185.788 159.17C189.388 150.59 187.093 141.17 184.843 132.425C186.043 131.885 187.228 131.3 188.383 130.655C188.563 130.55 188.563 130.085 188.533 129.98C187.816 127.437 186.965 124.933 185.983 122.48C191.383 122.33 228.313 122.315 228.358 122.255V122.21ZM228.493 126.875L227.683 175.49H221.143C219.352 165.478 219.561 155.211 221.758 145.28C223.423 137.15 225.013 133.82 228.493 126.92V126.875ZM153.193 242.72C141.193 242.72 109.438 242.405 105.478 242.36C106.978 233.225 109.798 211.355 109.543 209.36C112.543 209.36 127.813 209.18 132.463 209.195C139.844 210.029 147.3 209.954 154.663 208.97C153.223 215.945 152.008 221.93 153.193 242.765V242.72ZM123.913 167.36C123.313 164.36 121.453 154.265 121.273 152.36C121.945 152.308 122.62 152.408 123.248 152.652C123.877 152.896 124.442 153.278 124.903 153.77C126.553 154.97 143.998 165.41 145.723 166.34C149.242 168.242 152.959 169.751 156.808 170.84C166.033 173.42 173.443 173.045 180.523 166.58C180.523 167.105 180.718 175.355 180.913 175.58H176.413C173.669 175.784 171.007 176.61 168.629 177.995C166.251 179.38 164.219 181.288 162.688 183.575C157.078 180.08 137.698 171.275 123.913 167.36ZM124.978 176.54H123.478C123.388 176.21 119.788 161.225 119.158 157.82C118.813 156.035 118.558 154.235 118.183 152.45C119.037 152.502 119.894 152.502 120.748 152.45C121.378 159.035 124.513 175.07 124.978 176.54ZM172.513 170.765C165.673 173.195 156.313 170.6 149.683 167.69C146.293 166.19 143.323 163.985 140.068 162.23C131.068 157.415 123.898 152.42 123.163 152.12C120.763 151.145 118.498 153.62 112.408 149.33C112.258 149.225 111.943 149.03 111.988 148.82C112.033 148.61 112.588 148.655 112.798 148.685C113.757 148.837 114.691 149.119 115.573 149.525C115.828 149.63 116.068 149.255 115.798 149.135C114.257 148.385 112.782 147.507 111.388 146.51C111.163 146.165 111.388 145.85 111.763 145.88C111.898 145.88 115.108 147.38 115.933 147.71C116.188 147.83 116.398 147.47 116.158 147.335C114.529 146.593 112.941 145.761 111.403 144.845C110.743 144.2 111.043 143.51 111.568 143.51C111.688 143.6 114.568 144.755 115.873 145.19C116.248 145.325 116.398 144.74 116.038 144.605C115.093 144.26 112.408 143.315 112.063 143.105C111.718 142.895 111.463 142.415 112.063 142.265C112.663 142.115 116.563 142.49 117.613 142.565C117.661 142.567 117.709 142.558 117.753 142.538C117.797 142.517 117.835 142.487 117.865 142.448C117.894 142.41 117.914 142.365 117.922 142.318C117.931 142.27 117.928 142.221 117.913 142.175C117.644 141.643 117.554 141.038 117.658 140.45C117.838 139.91 118.108 140.27 118.348 140.6C118.858 141.275 121.168 144.875 123.238 145.415C131.158 147.5 139.513 147.71 147.013 148.58C148.873 148.79 154.213 149.72 155.023 149.945C155.578 150.11 157.363 150.665 157.333 150.08C157.198 148.205 155.923 140.66 155.728 138.725C159.328 138.545 181.078 135.185 184.348 132.725C186.283 140.12 188.233 147.905 186.433 155.54C185.588 159.047 183.869 162.283 181.434 164.946C179 167.608 175.931 169.611 172.513 170.765ZM126.493 78.0652C125.773 79.8802 123.493 79.3102 122.878 78.9502C122.826 78.9183 122.789 78.8673 122.775 78.8082C122.761 78.7491 122.771 78.6869 122.803 78.6352C122.835 78.5834 122.886 78.5465 122.945 78.5324C123.004 78.5184 123.066 78.5283 123.118 78.5602C123.553 78.8002 125.443 79.1452 126.118 77.8252C126.268 77.6452 126.553 77.9152 126.493 78.0652ZM125.083 72.8152C124.946 73.2028 124.719 73.5519 124.419 73.8332C124.119 74.1145 123.757 74.3196 123.361 74.4314C122.966 74.5431 122.549 74.5582 122.147 74.4753C121.744 74.3924 121.367 74.214 121.048 73.9552C121.43 71.7646 121.327 69.517 120.748 67.3702C120.748 67.1002 120.298 67.2202 120.343 67.4902C120.672 69.5225 120.778 71.5848 120.658 73.6402C119.712 73.7893 118.834 74.2242 118.143 74.8865C117.451 75.5487 116.978 76.4066 116.788 77.3452C116.788 77.3452 114.793 75.3202 113.863 70.3252C113.473 68.1952 113.038 66.0652 112.858 63.9052C117.493 65.4052 123.943 63.4252 129.763 58.6102C130.492 59.7084 131.462 60.6265 132.598 61.2952C133.361 60.9254 134.239 60.8726 135.041 61.1483C135.843 61.4239 136.503 62.0056 136.878 62.7664C137.252 63.5271 137.31 64.4051 137.04 65.2087C136.769 66.0122 136.191 66.676 135.433 67.0552C135.748 69.2752 135.643 73.5502 132.973 74.2102C130.858 74.7352 129.343 73.3852 125.083 72.8152ZM131.083 90.8152C134.699 89.3801 137.687 86.7057 139.513 83.2702C139.723 84.0352 142.033 90.9352 142.258 91.3252C141.902 92.7206 141.216 94.0101 140.258 95.0855C139.3 96.1609 138.098 96.9906 136.753 97.5052C128.923 101.03 125.788 96.2452 128.038 93.2752C128.053 93.2602 130.753 92.8552 131.128 90.8902L131.083 90.8152ZM127.303 93.3052C125.803 95.0602 126.853 98.4802 130.303 99.2152C133.753 99.9502 141.748 97.2502 142.843 91.3102C142.843 91.1752 159.193 92.6902 165.928 97.3102C182.008 108.2 186.928 127.31 187.768 130.145C178.123 136.43 154.408 138.035 151.768 138.2C150.28 131.407 149.85 124.425 150.493 117.5C150.493 117.32 150.238 117.335 150.223 117.5C149.383 124.538 149.728 131.666 151.243 138.59C151.262 138.652 151.299 138.708 151.35 138.748C151.401 138.788 151.463 138.812 151.528 138.815C152.728 138.815 153.943 138.815 155.143 138.725C155.248 140.585 156.493 147.95 156.643 149.795C153.653 148.972 150.604 148.381 147.523 148.025C126.163 145.76 122.203 145.64 120.058 142.205C120.208 136.61 121.693 123.11 128.893 99.3052C128.904 99.2605 128.905 99.2139 128.896 99.1687C128.887 99.1235 128.869 99.0808 128.842 99.0436C128.814 99.0064 128.779 98.9757 128.739 98.9535C128.699 98.9313 128.654 98.9182 128.608 98.9152C123.328 99.2452 118.043 99.5252 112.753 99.7552C113.413 99.5002 120.973 94.5052 127.348 93.3802L127.303 93.3052ZM128.293 99.5002C120.313 126.5 119.683 138.77 119.743 141.62C119.638 141.47 118.828 139.325 117.778 139.46C118.258 129.71 120.133 120.845 124.708 102.515C124.708 102.335 124.618 102.095 124.408 102.125C104.254 104.082 83.957 104.056 63.808 102.05C63.4672 101.454 63.1617 100.838 62.893 100.205C63.088 100.085 63.283 99.9802 63.478 99.8452C71.713 100.61 96.013 101.3 128.293 99.5002ZM63.088 102.05L60.283 101.66C60.718 101.45 62.113 100.715 62.383 100.565C62.608 101 62.833 101.57 63.088 102.05ZM53.158 104.345C50.023 106.1 46.573 108.74 45.793 112.46C45.603 113.332 45.6065 114.236 45.8035 115.107C46.0005 115.978 46.3861 116.795 46.933 117.5C48.433 119.435 49.933 118.265 51.433 119.42C52.933 120.575 51.973 122 51.013 122.885C47.6218 125.201 43.8785 126.954 39.928 128.075C37.198 128.885 34.468 129.305 31.963 130.13C34.108 128.72 36.793 127.67 37.363 124.985C37.4857 124.256 37.4267 123.507 37.1913 122.806C36.9558 122.105 36.5511 121.473 36.013 120.965C34.7512 119.791 33.197 118.978 31.513 118.61C28.408 117.665 24.193 116.66 23.818 112.76C23.7707 111.108 24.1903 109.475 25.0288 108.05C25.8672 106.626 27.0904 105.466 28.558 104.705C34.333 101.375 42.823 101.945 46.468 95.4802C47.2416 94.2101 47.5889 92.726 47.4594 91.2445C47.3299 89.763 46.7303 88.3618 45.748 87.2452C41.608 82.1152 32.833 81.6202 31.453 74.9302C31.0431 72.9638 31.4261 70.9151 32.5188 69.2296C33.6116 67.5442 35.3256 66.3584 37.288 65.9302C36.9862 66.4468 36.8272 67.0343 36.8272 67.6327C36.8272 68.231 36.9862 68.8185 37.288 69.3352C38.2687 70.8882 39.5862 72.2006 41.143 73.1752C49.873 79.2502 62.953 77.7802 68.293 88.4752C69.913 91.7152 69.298 92.5552 67.438 95.4652C64.918 99.5752 57.643 101.84 53.158 104.345ZM49.513 148.7C49.479 148.701 49.4456 148.71 49.4154 148.726C49.3852 148.742 49.359 148.764 49.3387 148.792C49.3185 148.819 49.3048 148.851 49.2986 148.884C49.2924 148.918 49.2939 148.952 49.303 148.985C49.603 150.035 49.558 151.175 49.828 152.24C47.4445 154.177 44.635 155.52 41.6308 156.159C38.6266 156.798 35.5136 156.715 32.548 155.915L27.208 136.415C32.4124 133.243 38.4255 131.648 44.518 131.825C44.7507 133.158 45.1435 134.457 45.688 135.695C47.4803 135.28 49.3556 135.411 51.073 136.07C50.3187 136.748 49.6534 137.52 49.093 138.365C48.283 138.23 47.353 137.75 46.528 138.08C45.703 138.41 45.763 139.325 46.108 140.03C47.0963 142.097 47.7398 144.311 48.013 146.585C48.013 146.885 48.523 146.885 48.493 146.585C48.5002 146.46 48.5002 146.335 48.493 146.21C49.5243 146.357 50.5752 146.281 51.5742 145.986C52.5733 145.69 53.4971 145.184 54.283 144.5C54.0659 145.63 53.4795 146.655 52.6161 147.416C51.7527 148.176 50.6612 148.628 49.513 148.7ZM54.223 143.825C52.588 146.225 49.183 145.91 48.493 145.85C48.1363 143.772 47.4953 141.753 46.588 139.85C46.348 139.43 46.138 138.815 46.693 138.56C47.248 138.305 48.193 138.74 48.898 138.71C48.703 139.07 48.433 139.61 48.673 139.985C49.243 140.87 51.298 139.55 52.063 138.815C52.1778 138.813 52.2914 138.839 52.3936 138.891C52.4957 138.943 52.5832 139.02 52.648 139.115C53.383 140.225 51.538 141.215 50.788 141.47C50.7522 141.47 50.7179 141.484 50.6926 141.51C50.6673 141.535 50.653 141.569 50.653 141.605C50.653 141.641 50.6673 141.675 50.6926 141.701C50.7179 141.726 50.7522 141.74 50.788 141.74C51.2459 141.658 51.682 141.482 52.0691 141.224C52.4562 140.966 52.786 140.631 53.038 140.24C53.1846 140.326 53.3121 140.441 53.4131 140.578C53.5141 140.715 53.5864 140.87 53.6256 141.036C53.6649 141.201 53.6702 141.372 53.6414 141.54C53.6126 141.707 53.5503 141.867 53.458 142.01C53.1469 142.394 52.7598 142.709 52.321 142.937C51.8821 143.164 51.4011 143.298 50.908 143.33C50.698 143.33 50.788 143.69 50.998 143.66C51.5585 143.636 52.1068 143.489 52.6044 143.23C53.102 142.97 53.5367 142.605 53.878 142.16C54.0192 142.239 54.1412 142.348 54.2352 142.48C54.3291 142.612 54.3927 142.763 54.4214 142.922C54.4501 143.081 54.4431 143.245 54.4011 143.401C54.359 143.557 54.2828 143.702 54.178 143.825H54.223ZM54.853 143.495C54.853 143.495 55.168 142.205 54.133 141.815C54.2569 141.407 54.2194 140.967 54.028 140.585C53.8447 140.277 53.5729 140.032 53.248 139.88C53.2823 139.68 53.2703 139.474 53.2131 139.279C53.156 139.085 53.055 138.905 52.918 138.755C52.438 138.23 52.303 138.65 52.618 138.185C52.783 137.96 52.423 137.69 52.243 137.885C51.6635 138.433 51.0415 138.935 50.383 139.385C50.158 139.52 49.093 140.09 49.093 139.58C49.4673 138.643 49.9888 137.772 50.638 137C51.0173 136.603 51.5179 136.343 52.061 136.262C52.6041 136.18 53.1589 136.282 53.638 136.55C54.4914 136.849 55.389 137.001 56.293 137C58.318 137 68.218 135.5 69.298 135.305C70.298 139.115 71.228 142.94 72.088 146.78C66.4033 145.321 60.6317 144.224 54.808 143.495H54.853ZM59.863 102.035C67.948 103.295 90.748 106.145 124.063 102.83C117.613 126.215 117.238 139.805 117.253 139.85C117.085 140.166 116.987 140.515 116.966 140.872C116.945 141.229 117.002 141.587 117.133 141.92C115.948 141.83 111.643 141.05 111.133 142.16C111.044 142.326 111.007 142.514 111.025 142.701C111.044 142.888 111.118 143.065 111.238 143.21C110.398 143.375 110.593 144.38 110.893 144.83C111.061 145.07 111.275 145.274 111.523 145.43C111.368 145.427 111.216 145.476 111.092 145.568C110.967 145.66 110.876 145.791 110.833 145.94C110.518 146.885 112.018 147.635 113.158 148.295C113.158 148.295 111.658 148.04 111.538 148.655C111.418 149.27 112.063 149.66 112.453 149.93C114.092 151.023 115.902 151.834 117.808 152.33C119.029 160.478 120.767 168.539 123.013 176.465C116.263 176.195 80.143 175.73 77.458 172.145C76.858 168.065 73.738 143.075 59.818 102.035H59.863ZM76.513 210.845C78.013 210.71 79.513 210.605 80.908 210.5C80.908 210.8 81.208 239.12 81.238 242.21C62.503 242.06 64.918 242.21 61.483 242.21C61.393 233.33 61.318 225.245 61.288 223.385C66.7127 219.649 71.8064 215.453 76.513 210.845ZM71.233 172.565C69.988 173.69 59.713 187.82 56.908 192.44C53.203 175.37 40.768 174.56 40.408 174.44C49.363 174.14 69.898 172.655 71.188 172.565H71.233ZM33.958 212.585C31.978 207.98 28.513 203 26.263 197.495C23.968 191.675 23.263 183.995 27.763 179.015C31.648 174.68 39.103 173.45 45.553 177.365C51.313 180.86 54.553 187.01 56.338 193.34C55.843 194.165 40.048 217.52 38.743 219.41C38.743 219.485 41.473 222.185 42.223 222.89C41.518 223.925 38.563 228.14 37.723 229.205C37.0633 228.85 36.3761 228.549 35.668 228.305C35.668 228.305 35.878 217.01 33.958 212.585ZM37.978 229.49C38.788 228.425 41.863 224.27 42.553 223.235C44.428 225.005 46.288 226.775 48.118 228.59C46.7191 229.818 45.443 231.18 44.308 232.655C42.733 235.13 43.828 238.22 40.438 240.59C40.198 240.38 38.293 238.61 37.723 237.995C37.5688 237.829 37.4657 237.622 37.4258 237.398C37.3859 237.175 37.411 236.945 37.498 236.735C37.828 236 39.448 232.385 37.978 229.49ZM38.563 275.42C37.793 275.2 37.1151 274.736 36.631 274.097C36.147 273.459 35.8828 272.681 35.878 271.88C35.743 268.97 37.138 268.715 36.298 241.52C37.558 242.42 38.803 243.23 40.003 243.95C40.2043 244.082 40.4426 244.146 40.6829 244.133C40.9232 244.119 41.1528 244.029 41.338 243.875C41.5714 243.674 41.7872 243.453 41.983 243.215C42.0734 243.089 42.1374 242.946 42.1713 242.795C42.2052 242.643 42.2082 242.487 42.1802 242.334C42.1522 242.181 42.0938 242.036 42.0084 241.906C41.9229 241.777 41.8123 241.666 41.683 241.58L40.708 240.815C44.083 238.64 43.213 235.445 44.593 233.135C45.7254 231.597 47.0344 230.198 48.493 228.965L50.173 230.675C50.173 230.675 54.778 227.825 60.673 223.715C60.778 228.56 61.303 273.215 61.513 275.345C57.508 275.42 40.048 275.855 38.563 275.42ZM61.438 242.42C69.613 242.57 71.728 242.63 81.193 242.705C81.283 251.075 81.388 256.865 81.913 263.855C81.913 263.855 68.413 264.26 61.678 264.65C61.603 259.415 61.513 250.595 61.513 242.42H61.438ZM61.888 275.345C61.888 273.485 61.723 266.645 61.693 265.1C68.443 264.78 75.198 264.54 81.958 264.38C81.958 265.19 82.693 272.255 82.873 274.97L61.888 275.345ZM95.848 289.655C94.2541 289.737 92.657 289.737 91.063 289.655C90.8452 289.629 90.6396 289.54 90.4717 289.399C90.3038 289.258 90.1809 289.07 90.118 288.86C89.5386 286.919 88.4203 285.182 86.893 283.85C86.998 282.215 87.058 278.18 87.058 277.85C89.288 277.91 91.523 278.015 93.763 278.165C93.6743 279.893 93.7901 281.625 94.108 283.325C94.783 285.23 97.048 287.42 95.848 289.655ZM95.518 194C89.293 194 82.153 200.39 80.923 209.885L77.038 210.185C78.5272 208.649 79.8822 206.988 81.088 205.22C83.128 197.885 90.163 192.71 96.0881 192.605C99.1774 192.702 102.119 193.948 104.338 196.1C106.362 198.058 107.969 200.405 109.063 203C113.038 205.19 120.448 207.095 128.683 208.55C126.013 208.55 113.173 208.67 109.453 208.745C108.103 200.15 101.473 194.12 95.518 194ZM125.758 272.42C117.448 273.68 99.658 274.55 99.148 274.565C99.913 271.115 100.648 267.605 101.413 264.065C110.003 264.005 118.593 263.97 127.183 263.96C126.703 266.81 126.238 269.645 125.758 272.48V272.42ZM101.533 263.42C102.883 256.835 105.388 242.9 105.403 242.81L153.223 243.305C153.538 249.92 154.168 256.535 154.903 263.12C145.843 263.36 107.158 263.48 101.533 263.54V263.42ZM157.123 275.42C155.773 263.705 154.588 253.19 154.123 241.37C153.328 221.6 155.188 214.895 155.323 209.615C155.608 197.48 161.323 179.795 172.918 176.795C174.919 176.175 177.033 176.006 179.108 176.299C181.183 176.592 183.167 177.34 184.918 178.49C186.202 179.587 187.318 180.866 188.233 182.285C190.175 185.246 191.437 188.6 191.93 192.106C192.422 195.612 192.133 199.184 191.083 202.565C189.133 208.895 184.138 215.78 181.393 222.935C176.173 236.6 176.683 268.04 179.173 278.435C171.713 278.722 164.259 277.748 157.123 275.555V275.42ZM179.788 278.345C177.958 270.695 178.018 261.095 178.093 253.1C177.992 244.338 178.913 235.594 180.838 227.045C183.733 215.465 192.748 207.455 192.838 195.635C192.916 190.285 191.212 185.06 187.993 180.785C186.453 178.519 184.156 176.875 181.513 176.15H227.683C227.578 182.825 226.738 267.8 226.738 267.815L215.683 275.12C203.533 275.285 191.878 278 179.788 278.48V278.345ZM246.103 179.45C250.438 184.925 252.178 193.415 248.218 203.855C244.903 212.66 230.353 232.925 236.968 271.085C236.863 271.085 233.188 268.685 231.418 267.695C231.418 267.695 232.918 184.04 233.068 176.195C242.728 175.61 245.278 178.55 246.103 179.585V179.45ZM241.603 127.175C243.391 130.424 244.238 134.107 244.048 137.81C244.243 150.29 242.023 163.31 239.203 175.475C238.003 175.34 233.893 175.28 233.053 175.325C233.053 171.935 233.668 124.94 233.698 122.495C235.318 122.563 236.894 123.04 238.279 123.882C239.664 124.724 240.813 125.903 241.618 127.31L241.603 127.175ZM230.653 267.695C230.578 268.37 253.888 281.465 254.653 281.795C252.913 284.555 244.153 286.82 240.748 287.15C238.648 287.36 219.508 287.15 215.353 286.775C210.991 286.419 206.728 285.281 202.768 283.415C204.373 282.605 227.278 268.28 227.293 267.695C227.548 256.64 229.318 96.0802 229.378 89.3752H233.473C233.383 102.68 230.833 266.48 230.668 267.83L230.653 267.695ZM225.598 89.0002C225.943 78.6052 228.973 8.88515 228.913 8.85515L235.138 8.73515C235.813 13.8652 245.638 88.6552 245.638 88.7002C244.753 88.7452 228.673 89.0002 225.598 89.0002ZM246.193 88.6702C246.193 88.6702 236.563 14.5552 235.513 8.75015L242.053 8.63015C243.343 13.8202 262.108 82.0552 263.638 87.8452C263.653 87.8452 252.013 88.5052 246.193 88.7002V88.6702ZM264.283 87.8002C264.283 87.8002 243.283 11.4202 242.443 8.58515L247.603 8.49515C251.173 19.1002 274.348 81.6802 276.403 86.9902C272.373 87.3302 268.333 87.6102 264.283 87.8302V87.8002Z" fill="black"/>
</svg>
