<svg width="191" height="41" viewBox="0 0 191 41" fill="none" xmlns="http://www.w3.org/2000/svg">
<path d="M15.9762 33.2488L9.64296 39.7198C9.40344 39.9645 9.07544 40.1024 8.733 40.1024C8.0298 40.1024 7.45974 39.5324 7.45974 38.8292V33.3844C7.45974 32.6233 6.84276 32.0063 6.08168 32.0063H4.22991C2.44613 32.0063 1.00008 30.5603 1.00008 28.7765V10.9909C1.00008 8.70769 2.85102 6.85675 5.13426 6.85675H29.5948C31.8781 6.85675 33.729 8.70769 33.729 10.9909V27.8722C33.729 30.1554 31.8781 32.0063 29.5948 32.0063H18.9308C17.819 32.0063 16.754 32.4542 15.9762 33.2488Z" fill="white" stroke="#4CAF50" stroke-width="1.72257"/>
<path d="M9.78516 19.4315C9.78516 20.8586 8.62832 22.0154 7.20129 22.0154C5.77427 22.0154 4.61743 20.8586 4.61743 19.4315C4.61743 18.0045 5.77427 16.8477 7.20129 16.8477C8.62832 16.8477 9.78516 18.0045 9.78516 19.4315Z" fill="#4CAF50"/>
<path d="M17.5367 19.4315C17.5367 20.8586 16.3799 22.0154 14.9529 22.0154C13.5259 22.0154 12.369 20.8586 12.369 19.4315C12.369 18.0045 13.5259 16.8477 14.9529 16.8477C16.3799 16.8477 17.5367 18.0045 17.5367 19.4315Z" fill="#4CAF50"/>
<path d="M25.2883 19.4315C25.2883 20.8586 24.1315 22.0154 22.7045 22.0154C21.2774 22.0154 20.1206 20.8586 20.1206 19.4315C20.1206 18.0045 21.2774 16.8477 22.7045 16.8477C24.1315 16.8477 25.2883 18.0045 25.2883 19.4315Z" fill="#4CAF50"/>
<path d="M28.6575 27.3921L34.9908 33.863C35.2303 34.1078 35.5583 34.2457 35.9008 34.2457C36.604 34.2457 37.174 33.6756 37.174 32.9724V27.5277C37.174 26.7666 37.791 26.1496 38.5521 26.1496H40.4039C42.1877 26.1496 43.6337 24.7036 43.6337 22.9198V5.13418C43.6337 2.85094 41.7828 1 39.4995 1H15.039C12.7557 1 10.9048 2.85093 10.9048 5.13418V22.0154C10.9048 24.2987 12.7557 26.1496 15.039 26.1496H25.703C26.8148 26.1496 27.8798 26.5975 28.6575 27.3921Z" fill="#4CAF50" stroke="white" stroke-width="1.72257"/>
<path d="M22.1877 20.9662V6.85675H32.1085V9.94319H26.0182V12.3683H31.5022V15.4547H26.0182V20.9662H22.1877Z" fill="white"/>
<path d="M62.5305 21.939H57.4863V27.5458H54.3434V13.1894H63.4811V16.0995H57.4863V19.1066H62.5305V21.939ZM68.778 13.1894V24.6357H74.443V27.5458H65.6351V13.1894H68.778ZM78.7537 27.5458H75.475L80.5967 13.1894H83.662L88.7643 27.5458H85.4274L84.4186 24.5193H79.7819L78.7537 27.5458ZM81.7219 18.8156L80.6937 21.8808H83.5262L82.498 18.8156C82.3428 18.3305 82.1682 17.7679 82.11 17.4187C82.0518 17.7485 81.8965 18.2917 81.7219 18.8156ZM89.6398 17.3605C89.6398 14.7608 91.832 12.9178 94.9167 12.9178C98.0014 12.9178 99.9414 14.625 99.9414 17.3411H96.818C96.818 16.3323 96.0613 15.7115 94.8779 15.7115C93.5975 15.7115 92.7827 16.2935 92.7827 17.2441C92.7827 18.1171 93.2289 18.5439 94.2377 18.7574L96.3911 19.2036C98.952 19.7274 100.174 20.9496 100.174 23.2195C100.174 25.9937 98.0014 27.798 94.7033 27.798C91.5022 27.798 89.4264 26.0713 89.4264 23.3747H92.5498C92.5498 24.4223 93.3259 25.0043 94.7227 25.0043C96.1389 25.0043 97.0314 24.4417 97.0314 23.5299C97.0314 22.7345 96.6628 22.327 95.7121 22.133L93.5199 21.6868C90.959 21.163 89.6398 19.708 89.6398 17.3605ZM105.4 27.5458H102.257V13.1894H105.4V18.8544H110.949V13.1894H114.092V27.5458H110.949V21.7644H105.4V27.5458Z" fill="#4CAF50"/>
<path d="M120.216 13.1894V24.6357H125.881V27.5458H117.073V13.1894H120.216ZM130.996 13.1894V27.5458H127.853V13.1894H130.996ZM137.096 27.5458H133.992V13.1894H137.096L143.149 22.327V13.1894H146.253V27.5458H143.149L137.096 18.4275V27.5458ZM155.703 15.9055C153.104 15.9055 151.765 17.7291 151.765 20.5034C151.765 23.3941 153.395 24.8297 155.684 24.8297C158.051 24.8297 159.098 23.5493 159.234 22.0554H155.432V19.3006H162.183V27.5458H159.486L159.312 26.2459C158.536 27.1578 156.984 27.7592 155.277 27.7592C151.261 27.7592 148.448 24.8103 148.448 20.4064C148.448 16.0801 151.338 12.9566 155.781 12.9566C159.215 12.9566 161.853 14.9743 162.183 18.0783H158.885C158.516 16.5651 157.197 15.9055 155.703 15.9055ZM164.682 22.1524V13.1894H167.824V21.939C167.824 23.7433 168.814 24.7327 170.579 24.7327C172.364 24.7327 173.373 23.7045 173.373 21.939V13.1894H176.516V22.1524C176.516 25.5669 174.188 27.7786 170.579 27.7786C166.99 27.7786 164.682 25.5863 164.682 22.1524ZM180.777 27.5458H177.498L182.62 13.1894H185.685L190.787 27.5458H187.451L186.442 24.5193H181.805L180.777 27.5458ZM183.745 18.8156L182.717 21.8808H185.549L184.521 18.8156C184.366 18.3305 184.191 17.7679 184.133 17.4187C184.075 17.7485 183.92 18.2917 183.745 18.8156Z" fill="black"/>
</svg>
